<?xml version="1.0" encoding="UTF-8"?>
<svg version="1.1" xmlns="http://www.w3.org/2000/svg" width="1080" height="1080">
<path d="M0 0 C356.4 0 712.8 0 1080 0 C1080 356.4 1080 712.8 1080 1080 C723.6 1080 367.2 1080 0 1080 C0 723.6 0 367.2 0 0 Z " fill="#000000" transform="translate(0,0)"/>
<path d="M0 0 C2.07853211 -0.00323157 4.15706401 -0.00659688 6.2355957 -0.01008606 C10.56852747 -0.01602051 14.90143947 -0.01793216 19.234375 -0.01733398 C23.59118852 -0.01725322 27.94789578 -0.02412621 32.3046875 -0.0378418 C53.67566113 -0.10400668 75.01867495 -0.11252885 96.36328125 1.0625 C97.09058945 1.10198069 97.81789764 1.14146137 98.56724548 1.18213844 C114.40982569 2.07036078 130.10233786 3.9858887 145.8125 6.16796875 C146.9890918 6.32523438 148.16568359 6.4825 149.37792969 6.64453125 C194.25689935 12.68125786 194.25689935 12.68125786 211.8125 24.16796875 C225.62553732 42.58535184 214.8125 70.14623988 214.8125 93.16796875 C91.3925 93.16796875 -32.0275 93.16796875 -159.1875 93.16796875 C-159.1875 28.16796875 -159.1875 28.16796875 -154.1875 23.16796875 C-128.09344549 5.73427865 -86.45607489 4.44824374 -56 2.10546875 C-55.05576172 2.02748047 -54.11152344 1.94949219 -53.13867188 1.86914062 C-35.43808435 0.47202967 -17.7496648 0.0066702 0 0 Z " fill="#FEFEFE" transform="translate(316.1875,571.83203125)"/>
<path d="M0 0 C16.83 0 33.66 0 51 0 C51 45.54 51 91.08 51 138 C34.17 138 17.34 138 0 138 C0 92.46 0 46.92 0 0 Z " fill="#FEFEFE" transform="translate(694,433)"/>
<path d="M0 0 C13.2 0 26.4 0 40 0 C40 46.86 40 93.72 40 142 C26.6500104 142 13.31835451 140.91850721 0 140 C0 93.8 0 47.6 0 0 Z " fill="#FBFBFB" transform="translate(759,432)"/>
<path d="M0 0 C13.2 0 26.4 0 40 0 C40 46.2 40 92.4 40 140 C7 142 7 142 0 142 C0 95.14 0 48.28 0 0 Z " fill="#FDFDFD" transform="translate(638,432)"/>
<path d="M0 0 C10.23 0 20.46 0 31 0 C31.02254613 18.6276143 31.04097865 37.2552176 31.05181217 55.88284206 C31.05697536 64.53135605 31.06401848 73.17986097 31.07543945 81.82836914 C31.08538561 89.36364579 31.09185326 96.89891588 31.09408849 104.43419892 C31.09539572 108.42655852 31.0984823 112.41889936 31.10573006 116.41125298 C31.1124892 120.16467098 31.11461718 123.91806239 31.11310768 127.6714859 C31.11338406 129.05302894 31.11538981 130.43457281 31.11920547 131.81611061 C31.12414099 133.69437145 31.12239796 135.57264638 31.12025452 137.45091248 C31.12117631 138.50452186 31.1220981 139.55813124 31.12304783 140.64366817 C31 143 31 143 30 144 C28.63298536 144.21469678 27.25662106 144.37067234 25.87890625 144.5 C25.02490234 144.5825 24.17089844 144.665 23.29101562 144.75 C22.39060547 144.8325 21.49019531 144.915 20.5625 145 C19.69689453 145.0825 18.83128906 145.165 17.93945312 145.25 C16.27827267 145.40832546 14.61691454 145.56480659 12.95532227 145.71875 C8.63533272 146.12987168 4.31797197 146.5682028 0 147 C0 98.49 0 49.98 0 0 Z " fill="#F6F6F6" transform="translate(592,432)"/>
<path d="M0 0 C9.9 0 19.8 0 30 0 C30 48.51 30 97.02 30 147 C19.97972643 146.22920973 9.98104005 145.17424001 0 144 C0 96.48 0 48.96 0 0 Z " fill="#FDFDFD" transform="translate(815,432)"/>
<path d="M0 0 C6.93 0 13.86 0 21 0 C21 49.5 21 99 21 150 C4 154 4 154 0 154 C0 103.18 0 52.36 0 0 Z " fill="#F2F2F2" transform="translate(556,432)"/>
<path d="M0 0 C6.93 0 13.86 0 21 0 C21 50.82 21 101.64 21 154 C13.97110212 152.82851702 6.95616527 151.5458145 0 150 C0 100.5 0 51 0 0 Z " fill="#F2F2F2" transform="translate(860,432)"/>
<path d="M0 0 C3.3 0 6.6 0 10 0 C10.18683162 20.90526377 10.3279305 41.81039001 10.41449738 62.71631908 C10.45575935 72.42322372 10.51201879 82.12960982 10.60351562 91.83618164 C10.68322107 100.29587515 10.73485789 108.75519319 10.75270796 117.21525174 C10.76314361 121.69557599 10.78768743 126.17482603 10.84584045 130.65480614 C10.90013315 134.87154727 10.91689557 139.08677174 10.90486145 143.30382919 C10.9070629 144.85148042 10.92298587 146.39918219 10.9536438 147.9465313 C11.1748245 159.6853797 11.1748245 159.6853797 8.22825623 162.98256874 C6.18915363 164.25852035 4.23237754 165.1255195 2 166 C1.01 166.99 1.01 166.99 0 168 C0 112.56 0 57.12 0 0 Z " fill="#FBFBFB" transform="translate(531,432)"/>
<path d="M0 0 C3.3 0 6.6 0 10 0 C10 55.11 10 110.22 10 167 C1 161 1 161 0 160 C-0.09681822 157.93705722 -0.12186923 155.87073958 -0.12025452 153.80552673 C-0.12110894 153.15130393 -0.12196337 152.49708113 -0.12284368 151.82303339 C-0.12450028 149.61498657 -0.11897421 147.40701452 -0.11352539 145.19897461 C-0.11324353 143.62249249 -0.11340123 142.04601024 -0.1139679 140.4695282 C-0.11425592 136.17632451 -0.1083584 131.88314851 -0.10139394 127.58995128 C-0.09516121 123.10827317 -0.09455667 118.62659449 -0.09336853 114.14491272 C-0.09025497 105.65219091 -0.08204126 97.15948191 -0.07201904 88.66676575 C-0.06085866 79.00066461 -0.05534764 69.33456288 -0.05032361 59.66845691 C-0.03985866 39.77896412 -0.02225875 19.88948286 0 0 Z " fill="#F5F5F5" transform="translate(896,432)"/>
</svg>
