<?xml version="1.0" encoding="UTF-8"?>
<svg version="1.1" xmlns="http://www.w3.org/2000/svg" width="1032" height="320">
<path d="M0 0 C4.62 0 9.24 0 14 0 C14.23354658 28.69372131 14.40991689 57.3873003 14.51812172 86.08178043 C14.56969777 99.40509282 14.64001872 112.72761683 14.75439453 126.05053711 C14.85403072 137.66206119 14.91857358 149.27315777 14.94088495 160.88509744 C14.95392853 167.03446679 14.98460417 173.18261312 15.05730057 179.33159065 C15.12517227 185.11935836 15.14611762 190.90539935 15.13107681 196.69352722 C15.13382829 198.81764549 15.15372698 200.94182139 15.19205475 203.06559563 C15.46885783 219.19445774 15.46885783 219.19445774 11.76774216 223.74392509 C9.24185715 225.49957174 6.78117233 226.71433652 4 228 C-13.01984764 253.52977146 1.34473067 289.31896995 1 320 C-169.61 320 -340.22 320 -516 320 C-516 230 -516 230 -511 224 C-445.8825028 178.03976121 -314.56291989 189.3111049 -70.96746826 203.34570312 C-16.16317003 212.83682997 -16.16317003 212.83682997 -1 228 C-0.505 115.14 -0.505 115.14 0 0 Z " fill="#000000" transform="translate(516,0)"/>
<path d="M0 0 C23.76 0 47.52 0 72 0 C72 63.36 72 126.72 72 192 C48.24 192 24.48 192 0 192 C0 128.64 0 65.28 0 0 Z " fill="#000000" transform="translate(738,0)"/>
<path d="M0 0 C18.48 0 36.96 0 56 0 C56 64.68 56 129.36 56 196 C37.52 195.01 19.04 194.02 0 193 C0 129.31 0 65.62 0 0 Z " fill="#000000" transform="translate(830,0)"/>
<path d="M0 0 C18.48 0 36.96 0 56 0 C56 63.69 56 127.38 56 193 C37.52 193.99 19.04 194.98 0 196 C0 131.32 0 66.64 0 0 Z " fill="#000000" transform="translate(662,0)"/>
<path d="M0 0 C13.53 0 27.06 0 41 0 C41 66.99 41 133.98 41 203 C20.705 200.525 20.705 200.525 0 198 C0 132.66 0 67.32 0 0 Z " fill="#000000" transform="translate(907,0)"/>
<path d="M0 0 C13.53 0 27.06 0 41 0 C41 65.34 41 130.68 41 198 C27.47 199.65 13.94 201.3 0 203 C0 136.01 0 69.02 0 0 Z " fill="#000000" transform="translate(600,0)"/>
<path d="M0 0 C9.24 0 18.48 0 28 0 C28 70.29 28 140.58 28 213 C22.06 211.68 16.12 210.36 10 209 C6.7 208.34 3.4 207.68 0 207 C0 138.69 0 70.38 0 0 Z " fill="#000000" transform="translate(969,0)"/>
<path d="M0 0 C9.24 0 18.48 0 28 0 C28 68.31 28 136.62 28 207 C2 213 2 213 0 213 C0 142.71 0 72.42 0 0 Z " fill="#000000" transform="translate(551,0)"/>
<path d="M0 0 C4.62 0 9.24 0 14 0 C14 76.23 14 152.46 14 231 C11.36 229.02 8.72 227.04 6 225 C4.28982224 224.09882257 4.28982224 224.09882257 2.54509544 223.17943954 C-0.23982918 220.79462727 -0.40401813 220.48427356 -0.73828697 217.05636978 C-0.7635111 215.41408648 -0.75536102 213.77109577 -0.7215271 212.12896729 C-0.72665365 211.22308451 -0.7317802 210.31720174 -0.7370621 209.38386798 C-0.74696332 206.34145582 -0.71391684 203.30101895 -0.68115234 200.25878906 C-0.67946032 198.08088732 -0.68040908 195.90298215 -0.68380737 193.7250824 C-0.68553219 187.80578808 -0.65020262 181.88722003 -0.60836363 175.96809483 C-0.57091107 169.78481774 -0.56733558 163.60152487 -0.56021118 157.41815186 C-0.5415463 145.70606371 -0.49228671 133.99431074 -0.43211424 122.28237033 C-0.3646198 108.95004855 -0.33207298 95.61772542 -0.30194163 82.28527117 C-0.23918938 54.85666147 -0.13362213 27.4283495 0 0 Z " fill="#000000" transform="translate(1018,0)"/>
</svg>
